<svg xmlns="http://www.w3.org/2000/svg" width="258" height="100" viewBox="0 0 258 100">
<g>
<path d="M 48.80,42.86 L 50.08,43.31 L 52.50,44.89 L 55.90,48.29 L 56.20,48.68 L 56.56,49.30 L 56.69,49.60 L 56.68,50.16 L 56.62,50.45 L 56.20,51.11 L 55.09,52.40 L 52.89,54.74 L 49.42,51.27 L 48.32,50.34 L 47.78,49.92 L 46.73,49.37 L 46.21,49.14 L 45.14,49.00 L 44.59,48.98 L 43.42,49.28 L 42.81,49.49 L 41.45,50.25 L 40.74,50.69 L 39.12,51.94 L 38.27,52.64 L 36.30,54.41 L 32.87,57.68 L 31.94,58.59 L 30.35,60.18 L 29.59,60.93 L 28.34,62.24 L 27.75,62.86 L 26.78,63.94 L 26.34,64.45 L 25.64,65.34 L 24.99,66.20 L 24.34,67.58 L 24.00,69.53 L 24.00,70.41 L 24.40,71.96 L 24.66,72.70 L 25.57,73.96 L 26.09,74.55 L 27.49,75.48 L 30.11,76.49 L 30.63,76.63 L 31.60,76.65 L 32.09,76.61 L 33.12,76.22 L 33.67,75.96 L 34.96,75.07 L 37.42,73.07 L 38.02,72.55 L 39.04,71.69 L 39.53,71.28 L 40.36,70.64 L 41.15,70.06 L 42.43,69.47 L 43.05,69.26 L 44.37,69.30 L 46.94,69.88 L 49.39,70.56 L 45.60,74.76 L 44.79,75.65 L 43.21,77.22 L 42.41,77.98 L 40.85,79.27 L 40.08,79.88 L 38.54,80.90 L 37.77,81.38 L 36.26,82.12 L 35.51,82.46 L 34.02,82.93 L 33.28,83.13 L 31.82,83.32 L 31.09,83.38 L 29.64,83.30 L 28.92,83.23 L 27.50,82.87 L 26.41,82.55 L 24.46,81.62 L 23.52,81.11 L 21.89,79.87 L 21.12,79.21 L 19.84,77.70 L 19.25,76.92 L 18.35,75.19 L 17.95,74.31 L 17.44,72.43 L 17.24,71.48 L 17.16,69.49 L 17.17,68.49 L 17.54,66.45 L 18.61,63.40 L 18.89,62.81 L 20.02,61.23 L 20.66,60.38 L 22.37,58.42 L 23.28,57.41 L 25.38,55.24 L 26.46,54.15 L 28.77,51.96 L 29.93,50.88 L 32.26,48.84 L 33.41,47.85 L 35.58,46.12 L 36.62,45.32 L 38.43,44.09 L 40.54,42.99 L 42.01,42.50 L 44.81,42.23 L 46.19,42.21 Z" fill="rgba(126,54,221,1)"/>
<path d="M 64.95,26.13 L 65.66,26.23 L 66.87,26.67 L 67.47,26.94 L 68.68,27.84 L 70.84,29.84 L 71.91,30.91 L 73.49,33.03 L 74.19,34.09 L 75.04,36.24 L 75.38,37.32 L 75.52,39.57 L 74.96,43.13 L 74.90,43.36 L 74.61,43.95 L 74.44,44.27 L 73.95,45.03 L 73.42,45.82 L 71.88,47.80 L 71.05,48.84 L 69.05,51.15 L 68.02,52.33 L 65.76,54.77 L 64.61,55.98 L 62.29,58.33 L 61.14,59.47 L 58.95,61.52 L 57.88,62.49 L 56.02,64.04 L 53.80,65.57 L 52.87,66.07 L 50.80,66.65 L 49.75,66.87 L 47.58,66.92 L 46.49,66.88 L 44.35,66.39 L 43.31,66.09 L 41.37,65.08 L 40.51,64.56 L 38.68,63.05 L 36.61,60.86 L 36.23,60.31 L 35.77,59.52 L 35.60,59.15 L 35.58,58.53 L 35.64,58.22 L 36.12,57.52 L 37.43,56.12 L 39.86,53.68 L 42.52,56.84 L 43.06,57.48 L 44.07,58.48 L 44.57,58.93 L 45.56,59.55 L 46.06,59.81 L 47.09,60.01 L 47.62,60.07 L 48.76,59.85 L 49.35,59.69 L 50.68,59.03 L 51.37,58.65 L 52.94,57.53 L 53.76,56.91 L 55.64,55.32 L 58.88,52.37 L 60.09,51.23 L 62.14,49.19 L 63.10,48.21 L 64.67,46.42 L 65.40,45.56 L 66.51,43.99 L 67.02,43.23 L 67.69,41.84 L 67.97,41.16 L 68.23,39.90 L 68.30,39.29 L 68.15,38.12 L 68.02,37.54 L 67.48,36.42 L 66.25,34.75 L 65.61,34.03 L 63.94,33.25 L 63.05,32.97 L 61.02,33.06 L 59.97,33.21 L 57.72,34.16 L 54.27,36.50 L 53.51,37.15 L 52.17,38.14 L 51.51,38.59 L 50.29,39.22 L 49.69,39.50 L 48.49,39.82 L 46.59,40.00 L 45.60,40.00 L 44.05,39.77 L 43.73,39.70 L 43.28,39.52 L 43.00,39.22 L 43.00,39.07 L 43.44,38.42 L 43.72,38.05 L 44.62,37.03 L 45.11,36.49 L 46.34,35.23 L 46.97,34.59 L 48.38,33.23 L 49.80,31.87 L 52.62,29.40 L 53.27,28.84 L 54.40,27.96 L 55.68,27.11 L 55.98,26.96 L 56.89,26.68 L 57.39,26.55 L 58.57,26.33 L 62.43,26.00 L 63.42,26.00 M 235.25,48.49 L 235.72,48.80 L 236.38,49.80 L 236.65,50.35 L 236.83,51.71 L 236.50,54.00 L 236.38,54.39 L 235.94,55.01 L 235.70,55.30 L 235.09,55.70 L 234.44,56.06 L 232.89,56.15 L 232.11,56.09 L 230.72,55.39 L 230.41,55.16 L 229.91,54.58 L 229.68,54.26 L 229.41,53.49 L 229.21,52.71 L 229.29,51.32 L 229.40,50.67 L 230.02,49.58 L 230.39,49.09 L 231.48,48.42 L 233.56,48.00 L 234.20,48.00 Z" fill="rgba(169,127,235,1)"/>
<path d="M 205.84,73.03 L 204.77,72.70 L 202.79,71.85 L 201.84,71.39 L 200.11,70.30 L 199.28,69.72 L 197.83,68.41 L 197.13,67.72 L 195.97,66.22 L 195.42,65.45 L 194.56,63.78 L 194.17,62.93 L 193.64,61.13 L 193.42,60.21 L 193.23,58.30 L 193.37,55.34 L 193.53,54.15 L 194.05,51.98 L 194.34,50.94 L 195.11,49.07 L 195.53,48.18 L 196.55,46.61 L 197.10,45.86 L 198.38,44.59 L 199.05,43.99 L 200.58,43.02 L 201.38,42.57 L 203.16,41.90 L 204.09,41.60 L 206.12,41.22 L 209.46,41.00 L 210.53,41.00 L 212.31,41.11 L 213.16,41.19 L 214.59,41.48 L 215.28,41.64 L 216.50,42.14 L 218.21,43.15 L 219.06,43.75 L 220.69,45.62 L 221.48,46.63 L 222.85,49.03 L 223.48,50.25 L 224.38,52.77 L 224.98,56.25 L 225.00,59.00 L 214.00,59.00 L 212.48,59.00 L 209.71,59.07 L 208.39,59.12 L 206.22,59.27 L 205.22,59.35 L 203.86,59.57 L 203.58,59.62 L 203.22,59.74 L 203.00,59.93 L 203.00,60.05 L 203.21,60.45 L 203.34,60.67 L 203.77,61.19 L 205.63,62.93 L 206.33,63.47 L 208.35,64.27 L 209.41,64.61 L 211.69,64.96 L 212.81,65.07 L 214.72,64.90 L 215.15,64.82 L 215.83,64.56 L 216.50,64.00 L 216.79,63.54 L 217.49,63.11 L 217.86,62.98 L 218.69,63.19 L 219.12,63.38 L 220.03,64.21 L 221.42,66.13 L 221.87,66.90 L 222.44,67.93 L 222.66,68.39 L 222.77,69.00 L 222.77,69.27 L 222.42,69.69 L 221.39,70.38 L 219.98,71.21 L 217.29,72.41 L 215.97,72.93 L 213.39,73.52 L 212.11,73.74 L 209.60,73.72 L 208.34,73.64 M 215.00,52.70 L 215.00,52.25 L 214.68,51.44 L 214.47,51.06 L 213.80,50.41 L 213.42,50.11 L 212.50,49.63 L 212.01,49.42 L 210.92,49.14 L 209.80,48.91 L 207.48,49.12 L 206.92,49.23 L 205.89,49.65 L 204.57,50.57 L 204.23,50.91 L 203.73,51.49 L 203.51,51.77 L 203.25,52.25 L 203.15,52.47 L 203.15,52.84 L 203.18,53.02 L 203.45,53.30 L 203.62,53.43 L 204.16,53.63 L 204.47,53.72 L 205.31,53.84 L 205.77,53.90 L 206.92,53.96 L 209.00,54.00 L 210.06,54.00 L 211.73,53.93 L 212.50,53.88 L 213.60,53.70 L 214.08,53.59 L 214.66,53.29 L 214.89,53.13 M 98.00,72.19 L 98.00,72.13 L 98.16,71.62 L 98.27,71.30 L 98.62,70.30 L 98.82,69.75 L 99.35,68.32 L 99.64,67.56 L 100.32,65.76 L 100.68,64.82 L 101.49,62.71 L 101.91,61.62 L 102.83,59.25 L 105.89,51.44 L 113.79,31.50 L 118.30,31.20 L 122.81,30.90 L 130.91,51.50 L 132.02,54.34 L 134.05,59.54 L 134.53,60.78 L 135.42,63.08 L 135.85,64.19 L 136.62,66.19 L 136.99,67.14 L 137.61,68.77 L 137.90,69.54 L 138.36,70.76 L 138.57,71.31 L 138.83,72.04 L 139.00,72.55 L 139.00,72.62 L 138.60,72.73 L 138.34,72.78 L 137.51,72.87 L 137.05,72.91 L 135.89,72.96 L 133.92,73.00 L 133.29,73.00 L 132.26,72.99 L 131.78,72.98 L 130.99,72.93 L 130.25,72.86 L 129.30,72.48 L 128.88,72.22 L 128.26,71.29 L 127.27,69.00 L 125.70,65.00 L 118.01,65.00 L 110.32,65.00 L 109.12,69.00 L 108.82,69.99 L 108.35,71.30 L 108.10,71.86 L 107.44,72.49 L 107.05,72.74 L 105.83,72.93 L 105.47,72.97 L 104.59,72.99 L 102.96,73.00 L 102.28,73.00 L 101.03,72.94 L 100.44,72.90 L 99.46,72.76 L 99.01,72.69 L 98.39,72.50 L 98.14,72.41 M 120.90,51.75 L 120.33,50.31 L 119.32,47.92 L 119.10,47.41 L 118.75,46.67 L 118.43,46.10 L 118.38,46.05 L 118.20,46.18 L 118.10,46.29 L 117.83,46.69 L 117.55,47.16 L 116.81,48.72 L 116.43,49.57 L 115.63,51.59 L 114.55,54.75 L 114.39,55.28 L 114.29,55.99 L 114.29,56.30 L 114.65,56.66 L 114.90,56.81 L 115.93,56.94 L 118.42,57.00 L 122.97,57.00 L 120.90,51.75 M 143.19,57.25 L 143.50,41.50 L 148.25,41.20 L 149.32,41.13 L 150.80,41.10 L 151.44,41.10 L 152.23,41.29 L 152.55,41.41 L 152.86,41.89 L 153.00,43.02 L 153.00,45.15 L 155.63,43.07 L 156.43,42.45 L 158.67,41.59 L 159.82,41.23 L 162.18,40.94 L 162.73,40.90 L 163.72,40.94 L 164.19,40.99 L 164.92,41.19 L 165.25,41.31 L 165.62,41.68 L 165.67,42.43 L 165.59,42.63 L 165.40,43.27 L 165.30,43.62 L 165.08,44.49 L 164.45,47.43 L 164.29,48.27 L 163.98,49.40 L 163.81,49.90 L 163.31,50.47 L 163.01,50.71 L 162.08,50.91 L 159.95,51.00 L 159.24,51.00 L 158.02,51.13 L 157.44,51.21 L 156.47,51.55 L 156.01,51.74 L 155.25,52.33 L 154.90,52.67 L 154.34,53.56 L 154.09,54.05 L 153.70,55.29 L 153.53,55.96 L 153.29,57.60 L 153.18,58.47 L 153.07,60.55 L 153.00,64.22 L 153.00,73.00 L 147.94,73.00 L 142.88,73.00 L 143.19,57.25 M 174.00,61.57 L 174.00,60.18 L 173.99,57.89 L 173.99,56.82 L 173.96,55.10 L 173.94,54.30 L 173.86,53.06 L 173.82,52.49 L 173.69,51.65 L 173.62,51.27 L 173.42,50.75 L 173.31,50.52 L 173.02,50.23 L 171.75,49.82 L 171.28,49.75 L 170.60,49.49 L 170.29,49.33 L 169.87,48.76 L 169.68,48.43 L 169.44,47.42 L 169.19,45.25 L 169.12,44.26 L 169.09,42.91 L 169.10,42.33 L 169.31,41.64 L 169.46,41.35 L 170.04,41.11 L 171.44,41.00 L 172.02,41.00 L 172.82,40.88 L 173.17,40.79 L 173.59,40.36 L 173.77,40.09 L 173.93,39.15 L 174.00,37.00 L 174.00,33.00 L 179.00,33.00 L 184.00,33.00 L 184.00,36.94 L 184.00,37.86 L 184.08,39.12 L 184.14,39.67 L 184.48,40.34 L 184.69,40.62 L 185.45,40.92 L 187.25,41.19 L 188.02,41.26 L 189.05,41.45 L 189.50,41.58 L 190.03,42.04 L 190.24,42.32 L 190.42,43.27 L 190.50,45.50 L 190.50,46.45 L 190.42,47.73 L 190.36,48.29 L 190.03,48.96 L 189.81,49.25 L 189.05,49.55 L 187.25,49.81 L 184.00,50.13 L 184.00,61.56 L 184.00,73.00 L 179.00,73.00 L 174.00,73.00 L 174.00,61.57 Z" fill="rgba(251,251,251,1)"/>
</g>
</svg>